<?xml version="1.0" encoding="UTF-8"?>
<svg width="120px" height="24px" viewBox="0 0 120 24" version="1.1" xmlns="http://www.w3.org/2000/svg" xmlns:xlink="http://www.w3.org/1999/xlink">
    <!-- Generator: sketchtool 56.3 (101010) - https://sketch.com -->
    <title>B5591257-95D2-4755-A611-2A59EF959D2C</title>
    <desc>Created with sketchtool.</desc>
    <defs>
        <linearGradient x1="50%" y1="0%" x2="50%" y2="100%" id="linearGradient-1">
            <stop stop-color="#00B571" offset="0%"></stop>
            <stop stop-color="#01A2EC" offset="100%"></stop>
        </linearGradient>
    </defs>
    <g id="Page-1" stroke="none" stroke-width="1" fill="none" fill-rule="evenodd">
        <g id="Home" transform="translate(-104.000000, -24.000000)">
            <g id="Group-4" transform="translate(104.000000, 24.000000)">
                <g id="Group-2">
                    <path d="M7.6916556,-3.10752092e-16 L24.08,0 L24.08,16.3083444 C24.08,18.9829006 23.8015232,19.9527593 23.2786019,20.9305371 C22.7556806,21.9083149 21.9883149,22.6756806 21.0105371,23.1986019 C20.0327593,23.7215232 19.0629006,24 16.3883444,24 L0,24 L2.07168062e-16,7.6916556 C-1.2037061e-16,5.01709938 0.278476833,4.04724067 0.801398111,3.06946289 C1.32431939,2.09168511 2.09168511,1.32431939 3.06946289,0.801398111 C4.04724067,0.278476833 5.01709938,1.80555915e-16 7.6916556,-3.10752092e-16 Z" id="Rectangle" fill="url(#linearGradient-1)"></path>
                    <polygon id="Rectangle" fill="#FFFFFF" points="13.33 10.2857143 19.35 10.2857143 12.47 18.8571429 6.45 18.8571429"></polygon>
                    <polygon id="Rectangle" fill="#FFFFFF" points="11.61 5.14285714 17.63 5.14285714 10.75 13.7142857 4.73 13.7142857"></polygon>
                </g>
                <path d="M38.68,4.2 L41.44,4.2 L41.44,21 L38.68,21 L38.68,4.2 Z M50.944,8.688 C53.632,8.688 55.552,10.512 55.552,13.632 L55.552,21 L52.96,21 L52.96,13.896 C52.96,12.072 51.904,11.112 50.272,11.112 C48.568,11.112 47.224,12.12 47.224,14.568 L47.224,21 L44.632,21 L44.632,9 L47.224,9 L47.224,10.536 C48.016,9.288 49.312,8.688 50.944,8.688 Z M66.472,9 L69.304,9 L64.624,21 L61.624,21 L56.944,9 L59.776,9 L63.136,18.12 L66.472,9 Z M72.976,16.104 C73.384,17.976 74.896,18.936 76.816,18.936 C78.256,18.936 79.336,18.288 79.912,17.448 L82.048,18.696 C80.944,20.328 79.144,21.312 76.792,21.312 C72.832,21.312 70.264,18.6 70.264,15 C70.264,11.448 72.832,8.688 76.6,8.688 C80.176,8.688 82.624,11.568 82.624,15.024 C82.624,15.384 82.576,15.768 82.528,16.104 L72.976,16.104 Z M72.952,13.992 L80.008,13.992 C79.648,11.928 78.136,11.04 76.576,11.04 C74.632,11.04 73.312,12.192 72.952,13.992 Z M91.216,8.688 C93.904,8.688 95.824,10.512 95.824,13.632 L95.824,21 L93.232,21 L93.232,13.896 C93.232,12.072 92.176,11.112 90.544,11.112 C88.84,11.112 87.496,12.12 87.496,14.568 L87.496,21 L84.904,21 L84.904,9 L87.496,9 L87.496,10.536 C88.288,9.288 89.584,8.688 91.216,8.688 Z M105.304,11.496 L102.328,11.496 L102.328,17.256 C102.328,18.792 103.336,18.768 105.304,18.672 L105.304,21 C101.32,21.48 99.736,20.376 99.736,17.256 L99.736,11.496 L97.528,11.496 L97.528,9 L99.736,9 L99.736,6.408 L102.328,5.64 L102.328,9 L105.304,9 L105.304,11.496 Z M113.44,21.312 C109.936,21.312 107.104,18.552 107.104,15 C107.104,11.424 109.936,8.688 113.44,8.688 C116.968,8.688 119.776,11.424 119.776,15 C119.776,18.552 116.968,21.312 113.44,21.312 Z M113.44,18.792 C115.552,18.792 117.184,17.184 117.184,15 C117.184,12.816 115.552,11.208 113.44,11.208 C111.328,11.208 109.696,12.816 109.696,15 C109.696,17.184 111.328,18.792 113.44,18.792 Z" id="Invento" fill="#0A1F44" fill-rule="nonzero"></path>
            </g>
        </g>
    </g>
</svg>